<?xml version="1.0" encoding="utf-8"?>
<!-- Generator: Adobe Illustrator 22.0.1, SVG Export Plug-In . SVG Version: 6.00 Build 0)  -->
<svg version="1.1" id="Layer_1" xmlns="http://www.w3.org/2000/svg" xmlns:xlink="http://www.w3.org/1999/xlink" x="0px" y="0px"
	 viewBox="0 0 300 300" style="enable-background:new 0 0 300 300;" xml:space="preserve">
<style type="text/css">
	.st0{fill:none;stroke:#151515;stroke-width:2;stroke-miterlimit:10;}
	.st1{fill:#151515;}
	.st2{fill:#EEEBE3;}
</style>
<g>
	<g>
		<ellipse transform="matrix(0.7071 -0.7071 0.7071 0.7071 -62.1321 150.0005)" class="st0" cx="150" cy="150" rx="150" ry="150"/>
		
			<ellipse transform="matrix(0.7071 -0.7071 0.7071 0.7071 -62.1325 150.0009)" class="st1" cx="150" cy="150" rx="128.7" ry="128.7"/>
	</g>
	<g>
		<g>
			<rect x="89" y="123.7" class="st2" width="28.1" height="90.7"/>
			<path class="st2" d="M103,111.8c9.2,0,16.6-7.5,16.6-16.7c0-9.2-7.4-16.7-16.6-16.7c-9.2,0-16.6,7.5-16.6,16.7
				C86.3,104.3,93.8,111.8,103,111.8z"/>
		</g>
		<path class="st2" d="M162,166.8c0-12.8,5.9-20.4,17.1-20.4c10.3,0,15.3,7.3,15.3,20.4c0,13.1,0,47.6,0,47.6h28c0,0,0-33.1,0-57.5
			c0-24.3-13.8-36.1-33-36.1c-19.2,0-27.3,15-27.3,15v-12.2h-26.9v90.7H162C162,214.4,162,180.8,162,166.8z"/>
	</g>
</g>
</svg>
