<?xml version="1.0" encoding="utf-8"?>
<!-- Generator: Adobe Illustrator 22.0.1, SVG Export Plug-In . SVG Version: 6.00 Build 0)  -->
<svg version="1.1" id="Layer_1" xmlns="http://www.w3.org/2000/svg" xmlns:xlink="http://www.w3.org/1999/xlink" x="0px" y="0px"
	 viewBox="0 0 300 300" style="enable-background:new 0 0 300 300;" xml:space="preserve">
<style type="text/css">
	.st0{fill:none;stroke:#151515;stroke-width:2;stroke-miterlimit:10;}
	.st1{fill:#151515;}
	.st2{fill:#EEEBE3;}
</style>
<g>
	<g>
		<circle class="st0" cx="150" cy="150" r="150"/>
		<circle class="st1" cx="150" cy="150" r="128.7"/>
	</g>
	<path class="st2" d="M87.3,201.8c13.1,8.4,28.7,13.3,45.5,13.3c55.1,0,86.2-46.5,84.3-88.3c5.8-4.2,10.8-9.4,14.8-15.4
		c-5.3,2.4-11,4-17,4.7c6.1-3.7,10.8-9.5,13-16.4c-5.7,3.4-12.1,5.9-18.8,7.2c-5.4-5.8-13.1-9.4-21.7-9.4
		c-19.1,0-33.2,17.9-28.9,36.4c-24.7-1.2-46.5-13-61.2-31c-7.8,13.3-4,30.8,9.2,39.6c-4.9-0.2-9.4-1.5-13.4-3.7
		c-0.3,13.7,9.5,26.6,23.8,29.5c-4.2,1.1-8.8,1.4-13.4,0.5c3.8,11.8,14.7,20.4,27.7,20.6C118.8,199.3,103,203.6,87.3,201.8z"/>
</g>
</svg>
